Land_normalized_pl07_filtered_grf
version=1
nRows=15
nColumns=37
inDegrees=yes
endheader
time		1_ground_force_vx		1_ground_force_vy		1_ground_force_vz		1_ground_force_px		1_ground_force_py		1_ground_force_pz		1_ground_torque_x		1_ground_torque_y		1_ground_torque_z		2_ground_force_vx		2_ground_force_vy		2_ground_force_vz		2_ground_force_px		2_ground_force_py		2_ground_force_pz		2_ground_torque_x		2_ground_torque_y		2_ground_torque_z		3_ground_force_vx		3_ground_force_vy		3_ground_force_vz		3_ground_force_px		3_ground_force_py		3_ground_force_pz		3_ground_torque_x		3_ground_torque_y		3_ground_torque_z		4_ground_force_vx		4_ground_force_vy		4_ground_force_vz		4_ground_force_px		4_ground_force_py		4_ground_force_pz		4_ground_torque_x		4_ground_torque_y		4_ground_torque_z		
0.777000		-21.308802		680.818658		213.686042		0.108639		0.000000		0.223037		-0.374257		11.957548		3.753071		55.514453		996.956866		206.429345		-0.135129		0.000000		0.243807		-0.175015		-3.143016		-0.650791		22.073177		0.712780		-0.112638		0.375403		1.310991		1.913501		-0.099987		-0.003229		0.000510		-18.780465		-0.496879		1.826916		-0.265389		1.310021		1.924402		0.006080		0.000161		-0.000591		
0.779955		-22.784875		679.611104		210.307771		0.109015		0.000000		0.222813		-0.394415		11.764354		3.640518		51.047909		1016.156624		207.915233		-0.134442		0.000000		0.243865		-0.180230		-3.587748		-0.734084		22.059451		0.808097		-0.011236		0.375378		1.310995		1.913519		-0.095678		-0.003505		0.000049		-18.707631		-0.501548		1.848485		-0.265411		1.310018		1.924430		0.003510		0.000094		-0.000347		
0.782909		-24.506006		679.108996		206.326854		0.109452		0.000000		0.222767		-0.418715		11.603447		3.525363		46.386316		1035.086759		208.884688		-0.133810		0.000000		0.244003		-0.182813		-4.079569		-0.823269		22.078969		0.934940		0.050542		0.375358		1.310999		1.913535		-0.093225		-0.003948		-0.000214		-18.700895		-0.489589		1.854582		-0.265427		1.310012		1.924456		0.001516		0.000039		-0.000150		
0.785864		-26.490575		679.502155		201.828611		0.109949		0.000000		0.222905		-0.447793		11.486247		3.411698		42.059176		1052.229876		209.586001		-0.133278		0.000000		0.244142		-0.180422		-4.513968		-0.899100		22.108022		1.058388		0.069693		0.375346		1.311001		1.913551		-0.093288		-0.004466		-0.000294		-18.751444		-0.458016		1.840944		-0.265438		1.310006		1.924481		0.000397		0.000010		-0.000039		
0.788818		-28.705825		680.853235		196.831110		0.110479		0.000000		0.223166		-0.481540		11.421337		3.301853		38.496732		1066.180578		210.323818		-0.132875		0.000000		0.244212		-0.173762		-4.812504		-0.949353		22.133109		1.144487		0.069355		0.375346		1.311000		1.913569		-0.095452		-0.004936		-0.000299		-18.827917		-0.407142		1.814936		-0.265444		1.310003		1.924502		0.000399		0.000008		-0.000039		
0.791773		-31.052332		683.041695		191.379353		0.110990		0.000000		0.223426		-0.518108		11.396564		3.193172		35.882915		1075.895265		211.290820		-0.132607		0.000000		0.244173		-0.165486		-4.961895		-0.974447		22.158220		1.175202		0.082606		0.375359		1.310997		1.913586		-0.098492		-0.005224		-0.000367		-18.889287		-0.346762		1.792598		-0.265443		1.310001		1.924520		0.001588		0.000029		-0.000151		
0.794727		-33.360128		685.780889		185.627756		0.111412		0.000000		0.223562		-0.554546		11.399758		3.085698		34.182429		1080.818338		212.548576		-0.132465		0.000000		0.244020		-0.158237		-5.003335		-0.983932		22.198909		1.155535		0.134337		0.375386		1.310995		1.913602		-0.101083		-0.005262		-0.000612		-18.900788		-0.296377		1.788986		-0.265436		1.310001		1.924536		0.003706		0.000058		-0.000351		
0.797682		-35.406028		688.700620		179.842509		0.111690		0.000000		0.223510		-0.588169		11.440764		2.987561		33.289741		1080.874447		214.131685		-0.132439		0.000000		0.243759		-0.153535		-4.985087		-0.987593		22.269479		1.109825		0.229491		0.375424		1.310997		1.913620		-0.102435		-0.005105		-0.001055		-18.849706		-0.277321		1.808929		-0.265423		1.310000		1.924551		0.006185		0.000091		-0.000594		
0.800636		-36.954415		691.439398		174.338681		0.111811		0.000000		0.223303		-0.616853		11.541684		2.910101		33.165113		1076.362998		216.152517		-0.132529		0.000000		0.243398		-0.151486		-4.916426		-0.987303		22.371444		1.068160		0.351745		0.375466		1.311007		1.913638		-0.102581		-0.004898		-0.001613		-18.754217		-0.302543		1.844672		-0.265406		1.309998		1.924565		0.008389		0.000135		-0.000826		
0.803591		-37.800171		693.683805		169.420535		0.111809		0.000000		0.223028		-0.638329		11.714188		2.860987		33.853287		1067.813251		218.786223		-0.132751		0.000000		0.242938		-0.150917		-4.760310		-0.975345		22.489180		1.049413		0.471296		0.375504		1.311023		1.913657		-0.102247		-0.004771		-0.002142		-18.657516		-0.371025		1.881209		-0.265386		1.309994		1.924578		0.009973		0.000198		-0.001006		
0.806545		-37.790255		695.140602		165.340531		0.111727		0.000000		0.222769		-0.649933		11.955345		2.843598		35.388731		1055.855126		222.120233		-0.133115		0.000000		0.242381		-0.149845		-4.470795		-0.940516		22.595232		1.052231		0.556764		0.375534		1.311041		1.913675		-0.102340		-0.004766		-0.002522		-18.607793		-0.468562		1.905189		-0.265365		1.309990		1.924590		0.011043		0.000278		-0.001131		
0.809500		-36.832995		695.478519		162.234248		0.111590		0.000000		0.222543		-0.649120		12.256650		2.859108		37.685090		1041.137899		225.985402		-0.133616		0.000000		0.241743		-0.146278		-4.041270		-0.877183		22.661751		1.059526		0.586377		0.375554		1.311059		1.913693		-0.103413		-0.004835		-0.002676		-18.635587		-0.573062		1.912804		-0.265342		1.309986		1.924600		0.011924		0.000367		-0.001224		
0.812455		-34.921378		694.284048		160.032682		0.111394		0.000000		0.222297		-0.633951		12.603857		2.905191		40.508683		1024.300672		229.917730		-0.134227		0.000000		0.241060		-0.139275		-3.521815		-0.790509		22.671831		1.051531		0.555161		0.375564		1.311071		1.913707		-0.105419		-0.004890		-0.002581		-18.740559		-0.661513		1.912658		-0.265319		1.309986		1.924604		0.012769		0.000451		-0.001303		
0.815409		-32.178304		691.089386		158.417044		0.111134		0.000000		0.221948		-0.604039		12.973034		2.973781		43.557735		1005.998282		233.315307		-0.134903		0.000000		0.240379		-0.129554		-2.992327		-0.693979		22.626636		1.018465		0.475215		0.375568		1.311071		1.913715		-0.107803		-0.004853		-0.002264		-18.892008		-0.717458		1.920527		-0.265294		1.309990		1.924604		0.013315		0.000506		-0.001353		
0.818364		-28.857505		685.439715		156.908846		0.110819		0.000000		0.221441		-0.561406		13.335137		3.052640		46.598887		986.901783		235.701121		-0.135606		0.000000		0.239737		-0.118598		-2.511945		-0.599911		22.542234		0.965033		0.367684		0.375571		1.311063		1.913716		-0.109796		-0.004700		-0.001791		-19.043851		-0.736167		1.948160		-0.265267		1.309997		1.924602		0.013038		0.000504		-0.001334		
